{"title":"WWE.Night.of.Champions.2015.09.20.HDTV.XviD-FICEK9","uid":12553597,"size":1565437376,"categoryP":"video","categoryS":"tv_shows","magnet":"?xt=urn:btih:98cf0d4cbf99ba95ed5afcf80b6591b8683b1ae8&amp;dn=WWE.Night.of.Champions.2015.09.20.HDTV.XviD-FICEK9&amp;tr=udp%3A%2F%2Ftracker.leechers-paradise.org%3A6969&amp;tr=udp%3A%2F%2Fzer0day.ch%3A1337&amp;tr=udp%3A%2F%2Fopen.demonii.com%3A1337&amp;tr=udp%3A%2F%2Ftracker.coppersurfer.tk%3A6969&amp;tr=udp%3A%2F%2Fexodus.desync.com%3A6969","seeders":0,"leechers":1,"uploader":"FICEK9","files":2,"time":1444599056,"description":"\n   General\r\n      Complete name : WWE.Night.of.Champions.2015.09.20.HDTV.XviD-FICEK9.avi\r\n      Format : AVI\r\n      Format/Info : Audio Video Interleave\r\n      Format profile : OpenDML\r\n      File size : 1.46 GiB\r\n      Duration : 2h 47mn\r\n      Overall bit rate mode : Variable\r\n      Overall bit rate : 1 245 Kbps\r\n      Writing application : MEncoder SVN-r33883(20110719-gcc4.5.2)\r\n      Writing library : MPlayer\r\n   Video #0\r\n      ID : 0\r\n      Format : MPEG-4 Visual\r\n      Format profile : Advanced   \r\n      Format settings, BVOP : 2\r\n      Format settings, QPel : No\r\n      Format settings, GMC : No warppoints\r\n      Format settings, Matrix : Default (H.263)\r\n      Codec ID : XVID\r\n      Codec ID/Hint : XviD\r\n      Duration : 2h 47mn\r\n      Bit rate : 1 109 Kbps\r\n      Width : 624 pixels\r\n      Height : 352 pixels\r\n      Display aspect ratio : 16:9\r\n      Frame rate : 29.970 fps\r\n      Color space : YUV\r\n      Chroma subsampling : 4:2:0\r\n      Bit depth : 8 bits\r\n      Scan type : Progressive\r\n      Compression mode : Lossy\r\n      Bits/(Pixel*Frame) : 0.168\r\n      Stream size : 1.30 GiB (89%)\r\n      Writing library : XviD 1.2.1 (UTC 2008-12-04)\r\n   Audio #1\r\n      ID : 1\r\n      Format : MPEG Audio\r\n      Format version : Version 1\r\n      Format profile : Layer 3\r\n      Mode : Joint stereo\r\n      Mode extension : MS Stereo\r\n      Codec ID : 55\r\n      Codec ID/Hint : MP3\r\n      Duration : 2h 47mn\r\n      Bit rate mode : Variable\r\n      Bit rate : 121 Kbps\r\n      Channel(s) : 2 channels\r\n      Sampling rate : 48.0 KHz\r\n      Compression mode : Lossy\r\n      Stream size : 145 MiB (10%)\r\n      Alignment : Aligned on interleaves\r\n      Interleave, duration : 24 ms (0.72 video frame)\r\n      Interleave, preload duration : 653 ms","torrent":{"xt":"urn:btih:98cf0d4cbf99ba95ed5afcf80b6591b8683b1ae8","amp;dn":"WWE.Night.of.Champions.2015.09.20.HDTV.XviD-FICEK9","amp;tr":["udp%3A%2F%2Ftracker.leechers-paradise.org%3A6969","udp%3A%2F%2Fzer0day.ch%3A1337","udp%3A%2F%2Fopen.demonii.com%3A1337","udp%3A%2F%2Ftracker.coppersurfer.tk%3A6969","udp%3A%2F%2Fexodus.desync.com%3A6969"],"infoHash":"98cf0d4cbf99ba95ed5afcf80b6591b8683b1ae8","infoHashBuffer":{"type":"Buffer","data":[152,207,13,76,191,153,186,149,237,90,252,248,11,101,145,184,104,59,26,232]},"announce":[],"urlList":[]}}